<mxfile host="app.diagrams.net" modified="2023-12-10T12:09:29.218Z" agent="Mozilla/5.0 (Macintosh; Intel Mac OS X 10_15_7) AppleWebKit/537.36 (KHTML, like Gecko) Chrome/120.0.0.0 Safari/537.36" etag="aBITBQjRfl2bYqmKosaW" version="22.1.7" type="github">
  <diagram name="Page-1" id="5plmyteL5FaG14_j35b7">
    <mxGraphModel dx="813" dy="478" grid="1" gridSize="10" guides="1" tooltips="1" connect="1" arrows="1" fold="1" page="1" pageScale="1" pageWidth="850" pageHeight="1100" math="0" shadow="0">
      <root>
        <mxCell id="0" />
        <mxCell id="1" parent="0" />
        <mxCell id="H3gc-9jXIYk5QzrclJic-1" value="User" style="shape=umlActor;verticalLabelPosition=bottom;verticalAlign=top;html=1;outlineConnect=0;" vertex="1" parent="1">
          <mxGeometry x="90" y="270" width="30" height="60" as="geometry" />
        </mxCell>
        <mxCell id="H3gc-9jXIYk5QzrclJic-2" value="" style="rounded=0;whiteSpace=wrap;html=1;" vertex="1" parent="1">
          <mxGeometry x="160" y="160" width="480" height="280" as="geometry" />
        </mxCell>
        <mxCell id="H3gc-9jXIYk5QzrclJic-11" value="" style="edgeStyle=orthogonalEdgeStyle;rounded=0;orthogonalLoop=1;jettySize=auto;html=1;dashed=1;" edge="1" parent="1" source="H3gc-9jXIYk5QzrclJic-5" target="H3gc-9jXIYk5QzrclJic-9">
          <mxGeometry relative="1" as="geometry" />
        </mxCell>
        <mxCell id="H3gc-9jXIYk5QzrclJic-5" value="Input Pipeline&lt;br&gt;for Paddle" style="ellipse;whiteSpace=wrap;html=1;" vertex="1" parent="1">
          <mxGeometry x="190" y="170" width="100" height="40" as="geometry" />
        </mxCell>
        <mxCell id="H3gc-9jXIYk5QzrclJic-6" value="Rendering Paddle, Ball, Block" style="ellipse;whiteSpace=wrap;html=1;" vertex="1" parent="1">
          <mxGeometry x="190" y="380" width="100" height="50" as="geometry" />
        </mxCell>
        <mxCell id="H3gc-9jXIYk5QzrclJic-7" value="" style="endArrow=none;html=1;rounded=0;exitX=0;exitY=0;exitDx=0;exitDy=0;" edge="1" parent="1" source="H3gc-9jXIYk5QzrclJic-6">
          <mxGeometry width="50" height="50" relative="1" as="geometry">
            <mxPoint x="110" y="450" as="sourcePoint" />
            <mxPoint x="130" y="300" as="targetPoint" />
          </mxGeometry>
        </mxCell>
        <mxCell id="H3gc-9jXIYk5QzrclJic-8" value="" style="endArrow=none;html=1;rounded=0;entryX=0;entryY=0.5;entryDx=0;entryDy=0;" edge="1" parent="1" target="H3gc-9jXIYk5QzrclJic-5">
          <mxGeometry width="50" height="50" relative="1" as="geometry">
            <mxPoint x="130" y="300" as="sourcePoint" />
            <mxPoint x="130" y="190" as="targetPoint" />
          </mxGeometry>
        </mxCell>
        <mxCell id="H3gc-9jXIYk5QzrclJic-9" value="Move Paddle" style="ellipse;whiteSpace=wrap;html=1;" vertex="1" parent="1">
          <mxGeometry x="310" y="170" width="100" height="40" as="geometry" />
        </mxCell>
        <mxCell id="H3gc-9jXIYk5QzrclJic-13" value="" style="endArrow=classic;html=1;rounded=0;exitX=0;exitY=1;exitDx=0;exitDy=0;entryX=0.5;entryY=0;entryDx=0;entryDy=0;dashed=1;" edge="1" parent="1" source="H3gc-9jXIYk5QzrclJic-9" target="H3gc-9jXIYk5QzrclJic-6">
          <mxGeometry relative="1" as="geometry">
            <mxPoint x="330" y="340" as="sourcePoint" />
            <mxPoint x="430" y="340" as="targetPoint" />
          </mxGeometry>
        </mxCell>
        <mxCell id="H3gc-9jXIYk5QzrclJic-14" value="inclue" style="edgeLabel;resizable=0;html=1;align=center;verticalAlign=middle;" connectable="0" vertex="1" parent="H3gc-9jXIYk5QzrclJic-13">
          <mxGeometry relative="1" as="geometry" />
        </mxCell>
        <mxCell id="H3gc-9jXIYk5QzrclJic-16" value="Hit Ball" style="ellipse;whiteSpace=wrap;html=1;" vertex="1" parent="1">
          <mxGeometry x="470" y="170" width="100" height="40" as="geometry" />
        </mxCell>
        <mxCell id="H3gc-9jXIYk5QzrclJic-17" value="" style="endArrow=classic;html=1;rounded=0;exitX=1;exitY=0.5;exitDx=0;exitDy=0;entryX=0;entryY=0.5;entryDx=0;entryDy=0;dashed=1;" edge="1" parent="1" source="H3gc-9jXIYk5QzrclJic-9" target="H3gc-9jXIYk5QzrclJic-16">
          <mxGeometry relative="1" as="geometry">
            <mxPoint x="335" y="214" as="sourcePoint" />
            <mxPoint x="250" y="390" as="targetPoint" />
          </mxGeometry>
        </mxCell>
        <mxCell id="H3gc-9jXIYk5QzrclJic-18" value="inclue" style="edgeLabel;resizable=0;html=1;align=center;verticalAlign=middle;" connectable="0" vertex="1" parent="H3gc-9jXIYk5QzrclJic-17">
          <mxGeometry relative="1" as="geometry" />
        </mxCell>
      </root>
    </mxGraphModel>
  </diagram>
</mxfile>
